<svg xmlns="http://www.w3.org/2000/svg" viewBox="0 0 720 460"><rect width="720" height="460" fill="#edf2fa"/><rect x="78" y="67" width="564" height="337" rx="22" fill="#fff" stroke="#d3dded" stroke-width="2"/><rect x="111" y="97" width="211" height="153" rx="10" fill="#dce7fc"/><path d="M125 237l51-73 55 44 42-89 34 118" fill="#b3c9f6"/><circle cx="151" cy="126" r="14" fill="#fff"/><path d="M129 289h258" stroke="#5474aa" stroke-width="14" stroke-linecap="round"/><path d="M142 306v64m229-64v64" stroke="#7c98c5" stroke-width="12" stroke-linecap="round"/><rect x="426" y="227" width="160" height="141" rx="9" fill="#c0d3ef"/><path d="M436 276h140m-140 47h140" stroke="#e9f0fb" stroke-width="5"/><rect x="471" y="191" width="64" height="37" rx="8" fill="#2365b0"/><path d="M503 192v-54" stroke="#527a6c" stroke-width="6"/><path d="M503 171q-58-3-49-48 47 5 49 48m0-11q55-2 48-46-44 8-48 46" fill="#73a396"/><path d="M390 122h177m-177 25h128m-128 25h90" stroke="#d0dcee" stroke-width="8" stroke-linecap="round"/></svg>